<svg id="icon" xmlns="http://www.w3.org/2000/svg" viewBox="0 0 470.02 487.23">
    <defs>
        <style>.cls-1{fill:#ffffff;}</style>
    </defs>
    <path class="cls-1"
        d="M19,10.38H64.2V179.27h1.56C83.28,151.76,178.62,37.75,200.35,10.38h56.12L129.67,159,266.34,360.62H212.82l-115.36-172L64.2,227.07V360.62H19Z"
        transform="translate(-18.99 -10.38)" />
    <path class="cls-1"
        d="M489,137.16c-3.12,37.89-1.9,171.69-2.08,215.13,0,57.68-11.43,93-35.85,114.84-45.26,40.64-127.8,37.4-175.12,9.35l11.43-34.81c54.55,33.88,160,31.77,154.85-68.08V345.53h-1C384.73,432.64,247,375,254.14,265c-7.35-124.92,140.59-177.73,191.74-89.9h1L449,137.16Zm-47.29,99.25c-5.27-103.67-148.08-86.07-141.34,26-8.22,86.77,104,129.54,137.71,43.65C444.23,290.12,440.92,253.28,441.72,236.41Z"
        transform="translate(-18.99 -10.38)" />
</svg>