<svg id="icon" xmlns="http://www.w3.org/2000/svg" viewBox="0 0 485.79 485.79">
    <defs>
        <style>.cls-1,.cls-2{fill:#fff;}.cls-2{stroke:#fff;stroke-miterlimit:10;stroke-width:27px;}</style>
    </defs>
    <path class="cls-1"
        d="M482.32,138.8c-9.74-64.28-52.54-121.49-123-122.15-32.23-.3-73.15,22.38-98.2,41.17-25.9,19.43-39.51,47.54-51.6,76.77-9.2,22.25-18.11,44.06-30.9,64.53-9.79,15.66-20.76,31.29-24.4,49.79a57.53,57.53,0,0,0,6.86,41.41c-12.1,13-24,26.22-36.38,38.9-9.62,9.84-17,17.84-30.34,22.31-9,3-17.32,2.82-26.49,4.11C51.35,358,36.09,362.91,28.55,379c-8.27,17.62-2.76,33.64,10.62,46.86,13.18,13,25.2,14,40.89,11.64.66,5.48.06,11.78,2.19,17.32a72.14,72.14,0,0,0,14,23.23c14.16,15.16,29.77,16.59,48.31,8.2,17.87-8.07,28.28-21.43,29.53-41.14.45-7.19-1.26-15.33-1.17-22.46.18-15.77,5.09-25.27,15.12-37.19,11.6-13.78,24.45-26.69,36.73-39.89,13.86,6.15,28.52,7.92,44.69.89,13.41-5.83,25.37-15.14,37.53-23.12,19.74-12.94,41.29-21.1,62.94-30.23C426,269.46,492.43,205.52,482.32,138.8ZM159.88,416.69c-1.08,9.51,3.45,19,2.43,28.42-1.7,15.8-13.29,29.74-29,33.07-40.64,8.6-34.85-28.92-43-48.95-1.3-3.17-3.8-4.76-7.27-4.13-39.63,7.22-64.84-37.83-21.69-56.57,12.25-5.32,28.29-.92,41.18-6,26-10.15,46.82-41.39,65.53-62.24,8.36,10.52,19.29,19.8,30.42,28.68a5.81,5.81,0,0,0,.7.36,6.58,6.58,0,0,0,.5.57A167,167,0,0,0,214,339.82C193,361.42,163.37,385.9,159.88,416.69ZM469,174.28C457.9,211,422.37,253.05,389.6,271.05c-28.85,15.85-60.82,23.91-88.53,42.09C291,319.72,281,328.29,269.84,333c-25,10.52-44,2.11-63.88-13-13.28-10.59-28.2-22.45-35.84-37.8-12.28-24.66.64-48.32,13.83-69.54,17.19-27.64,28.36-55.89,41.44-85.52C258.19,52.85,355.2-2,428,54.12,458.08,77.28,480.39,136.72,469,174.28Z"
        transform="translate(-7.1 -7.1)" />
    <path class="cls-1" d="M283.22,92.84c-7.6,0-7.61,11.82,0,11.82S290.84,92.84,283.22,92.84Z"
        transform="translate(-7.1 -7.1)" />
    <path class="cls-1" d="M300.45,146.08c-7.6,0-7.61,11.82,0,11.82S308.07,146.08,300.45,146.08Z"
        transform="translate(-7.1 -7.1)" />
    <path class="cls-1"
        d="M365.15,159.64c-.21-7.59-12-7.62-11.81,0l0,1.08c.21,7.59,12,7.62,11.81,0Z"
        transform="translate(-7.1 -7.1)" />
    <path class="cls-1" d="M333.57,88.72c-7.6,0-7.61,11.81,0,11.81S341.19,88.72,333.57,88.72Z"
        transform="translate(-7.1 -7.1)" />
    <path class="cls-1" d="M363.86,58.44c7.61,0,7.62-11.81,0-11.81S356.25,58.44,363.86,58.44Z"
        transform="translate(-7.1 -7.1)" />
    <path class="cls-1"
        d="M392.05,124.07c-5.53-5.22-13.9,3.12-8.36,8.35l.56.53c5.52,5.22,13.89-3.12,8.35-8.36Z"
        transform="translate(-7.1 -7.1)" />
    <path class="cls-1"
        d="M405.58,82.77c-.17.19-.35.37-.53.56-5.22,5.52,3.12,13.89,8.36,8.35l.53-.56C419.16,85.6,410.82,77.23,405.58,82.77Z"
        transform="translate(-7.1 -7.1)" />
    <path class="cls-1" d="M433.14,147.73c7.61,0,7.62-11.82,0-11.82S425.53,147.73,433.14,147.73Z"
        transform="translate(-7.1 -7.1)" />
    <path class="cls-1" d="M369.92,204.37c-7.6,0-7.61,11.81,0,11.81S377.54,204.37,369.92,204.37Z"
        transform="translate(-7.1 -7.1)" />
    <path class="cls-1"
        d="M419.36,190.81l0,1.09c.21,7.58,12,7.61,11.82,0l0-1.09C431,183.23,419.15,183.19,419.36,190.81Z"
        transform="translate(-7.1 -7.1)" />
    <path class="cls-1"
        d="M187.08,237.36a67.3,67.3,0,0,0-5.38,39.48c1.17,7.49,12.56,4.31,11.39-3.14a53,53,0,0,1,4.2-30.38C200.42,236.46,190.24,230.44,187.08,237.36Z"
        transform="translate(-7.1 -7.1)" />
    <path class="cls-1" d="M202.3,208.46c-7.6,0-7.61,11.81,0,11.81S209.92,208.46,202.3,208.46Z"
        transform="translate(-7.1 -7.1)" />
    <line class="cls-2" x1="10.03" y1="9.55" x2="474.54" y2="474.05" />
    <line class="cls-2" x1="476.25" y1="9.55" x2="9.55" y2="476.25" />
</svg>