<svg id="Layer_1" data-name="Layer 1" xmlns="http://www.w3.org/2000/svg"
    viewBox="0 0 1185.98 1136.34">
    <defs>
        <style>.cls-1{fill:#ffffff;}</style>
    </defs>
    <path class="cls-1"
        d="M822.94,725.65,795.59,712a287.54,287.54,0,0,0,16.31-25.78c33.7-60.34,40.19-120,40.45-122.53l.08-144.88H950.8c36.79,0,65.6-23.32,65.6-53.11s-28.81-53.11-65.6-53.11H891.73c-5-38.13-14.8-97.28-32.08-151.38-27.42-85.87-65-129.41-111.56-129.41-21.49,0-43.9,9.68-66.6,28.76-19,15.92-57.65,34-81.08,34.44h-.76c-24.71,0-66.76-18.61-86.44-34.63-22.66-18.43-45-27.78-66.3-27.78-47.07,0-84.79,43.42-112.12,129.06C317.58,215.59,308,274.57,303.08,312.62H249.2c-36.79,0-65.6,23.33-65.6,53.11s28.81,53.11,65.6,53.11h98.35V563.42l.27,1.56c.44,2.5,11,61.75,46.64,121.7,5.36,9,11.05,17.51,17,25.58l-33.66,13.19,0-.07L134.91,823.23,7,1168.17H1193l-127.9-344.94Zm66.31,256.58V792L929,808V982.23Zm-36.76-205V996.28H349.2V776.51l34.06-13.73,22.93-9c17.64,111,176.18,193.92,183.32,197.59l8.41,4.33,8.41-4.33c7.2-3.71,168.91-88.27,183.77-201l17.75,8.84ZM272.71,807.33l39.72-16V996.28H272.71ZM600,811.13c58.71,0,109.54-17.25,150.53-50.5-11.58,39.78-46.32,75.88-76.37,101a536.76,536.76,0,0,1-76.24,52.51,538.16,538.16,0,0,1-76.25-52.51c-33.2-27.7-72.06-68.86-79.14-113.57C485.69,789.47,539.05,811.13,600,811.13Zm-350.8-429c-16.51,0-28.84-8.63-28.84-16.35s12.33-16.34,28.84-16.34h86.6l1.84-16.32C352.46,201.82,392,69.38,446.91,69.38c12.66,0,27.16,6.57,43.09,19.54,25.45,20.71,75.59,42.88,109.65,42.88h1.4c33.34-.58,80-22.8,104.09-43.06,15.9-13.36,30.35-20.14,43-20.14,54.16,0,93.84,132.86,109.14,264.53l1.89,16.27H950.8c16.51,0,28.84,8.63,28.84,16.34s-12.33,16.35-28.84,16.35H249.2Zm135.12,178V418.84H815.68V560.77c-.86,7.05-7.87,57.41-35.87,107.56-39.3,70.36-99.8,106-179.81,106-73.14,0-131.48-35.52-173.4-105.58C397.07,619.44,386.11,569.1,384.32,560.1ZM59.85,1131.41,163.73,851.25,236,822.15v309.26Zm540.15,0H272.71v-98.36H929v98.36Zm365.74,0V822.83l70.53,28.42,103.88,280.16Z"
        transform="translate(-7.01 -31.83)" />
</svg>